<svg xmlns="http://www.w3.org/2000/svg" width="100" height="100" viewBox="0 0 26.458 26.458"><path d="M15.176 20.56a7.597 7.597 0 0 0 1.88-.781 2.131 2.131 0 0 1 2.75-2.752c.34-.582.607-1.212.782-1.879a2.134 2.134 0 0 1 0-3.895 7.53 7.53 0 0 0-.781-1.878 2.12 2.12 0 0 1-.661.133l-2.171 2.495a3.93 3.93 0 0 1-3.746 5.131 3.938 3.938 0 0 1-3.933-3.933 3.937 3.937 0 0 1 3.933-3.933c.4 0 .785.06 1.148.172l2.546-2.217a2.14 2.14 0 0 1 .133-.6 7.55 7.55 0 0 0-1.88-.782 2.132 2.132 0 0 1-3.893 0 7.545 7.545 0 0 0-1.88.782 2.134 2.134 0 0 1-2.751 2.752 7.586 7.586 0 0 0-.782 1.879 2.131 2.131 0 0 1 0 3.894 7.59 7.59 0 0 0 .782 1.88 2.133 2.133 0 0 1 2.752 2.75 7.56 7.56 0 0 0 1.879.783 2.13 2.13 0 0 1 3.893 0" fill="#979797"/><path d="M12.545 12.167a1.192 1.192 0 1 0 1.686 1.686l8.513-9.731a.331.331 0 0 0-.468-.468l-9.731 8.513" fill="#515257"/><path d="M1.974 11.34l1.327 1.372c.272-5.248 4.613-9.42 9.928-9.42a9.9 9.9 0 0 1 5.996 2.013l2.087-1.79A12.59 12.59 0 0 0 13.229.593C6.405.593.848 5.999.599 12.763l1.375-1.423" fill="#81cc2b"/><path d="M11.335 24.49l1.371-1.327c-4.777-.247-8.66-3.866-9.318-8.522l-1.414-1.462-1.32 1.365c.64 6.213 5.778 11.089 12.103 11.322l-1.422-1.376" fill="#4f94d6"/><path d="M23.158 13.758c-.248 4.777-3.867 8.66-8.523 9.319l-1.461 1.413 1.364 1.32c6.213-.639 11.088-5.777 11.321-12.102l-2.701.05" fill="#f25c19"/></svg>